<svg width="54" height="54" viewBox="0 0 54 54" fill="none" xmlns="http://www.w3.org/2000/svg">
<circle cx="27" cy="27" r="26" stroke="white" stroke-width="2"/>
<path d="M35.9393 47.5607C36.5251 48.1464 37.4749 48.1464 38.0607 47.5607L47.6066 38.0147C48.1924 37.4289 48.1924 36.4792 47.6066 35.8934C47.0208 35.3076 46.0711 35.3076 45.4853 35.8934L37 44.3787L28.5147 35.8934C27.9289 35.3076 26.9792 35.3076 26.3934 35.8934C25.8076 36.4792 25.8076 37.4289 26.3934 38.0147L35.9393 47.5607ZM35.5 10.5V46.5H38.5V10.5H35.5Z" fill="white"/>
<path d="M14.9393 10.9393C15.5251 10.3536 16.4749 10.3536 17.0607 10.9393L26.6066 20.4853C27.1924 21.0711 27.1924 22.0208 26.6066 22.6066C26.0208 23.1924 25.0711 23.1924 24.4853 22.6066L16 14.1213L7.51472 22.6066C6.92893 23.1924 5.97918 23.1924 5.3934 22.6066C4.80761 22.0208 4.80761 21.0711 5.3934 20.4853L14.9393 10.9393ZM14.5 48L14.5 12H17.5L17.5 48H14.5Z" fill="white"/>
</svg>
