<svg version="1.1" xmlns="http://www.w3.org/2000/svg" viewBox="0 0 175 186" width="175" height="186">
  <!-- svg-source:excalidraw -->
  
  <defs>
    <style class="style-fonts">
      @font-face {
        font-family: "Virgil";
        src: url("https://excalidraw.com/Virgil.woff2");
      }
      @font-face {
        font-family: "Cascadia";
        src: url("https://excalidraw.com/Cascadia.woff2");
      }
    </style>
  </defs>
  <rect x="0" y="0" width="175" height="186" fill="#ffffff"></rect><g stroke-linecap="round" transform="translate(10 10) rotate(0 77.5 83)">
  <path d="M74.95 -0.3 C84.73 -2.1, 95.99 1, 105.73 5.11 C115.46 9.22, 125.85 16.27, 133.36 24.37 C140.88 32.48, 147.09 42.91, 150.81 53.75 C154.52 64.59, 156.62 77.87, 155.65 89.4 C154.68 100.93, 149.96 112.97, 144.98 122.91 C140.01 132.85, 133.78 142.3, 125.8 149.04 C117.82 155.78, 107.47 160.9, 97.08 163.36 C86.7 165.81, 73.87 165.72, 63.48 163.75 C53.09 161.79, 43.47 157.81, 34.74 151.57 C26.01 145.33, 16.77 135.91, 11.09 126.31 C5.4 116.71, 1.98 104.87, 0.62 93.97 C-0.73 83.08, 0.19 71.64, 2.97 60.94 C5.74 50.24, 10.33 38.46, 17.25 29.76 C24.18 21.06, 33.31 13.69, 44.51 8.75 C55.7 3.82, 76.13 0.92, 84.41 0.15 C92.68 -0.62, 94.3 2.55, 94.14 4.13 M66.17 0.88 C76.16 -2.07, 87.93 -0.35, 97.79 2.31 C107.66 4.97, 117.26 9.57, 125.35 16.83 C133.44 24.1, 141.44 35.56, 146.31 45.89 C151.19 56.23, 153.78 67.79, 154.6 78.85 C155.41 89.91, 154.71 101.68, 151.19 112.25 C147.67 122.83, 141.16 134.29, 133.48 142.3 C125.8 150.31, 115.1 156.34, 105.09 160.31 C95.08 164.27, 83.63 166.65, 73.43 166.09 C63.24 165.53, 53.32 162.24, 43.93 156.96 C34.54 151.67, 23.81 143.17, 17.08 134.37 C10.36 125.58, 6.33 114.84, 3.58 104.17 C0.83 93.5, -1.04 81.44, 0.58 70.37 C2.19 59.29, 7.55 47.09, 13.26 37.73 C18.97 28.36, 26.07 20.24, 34.85 14.19 C43.64 8.13, 60.71 3.16, 65.96 1.38 C71.21 -0.4, 66.37 2.23, 66.34 3.49" stroke="#000000" stroke-width="4" fill="none">
  </path></g><g stroke-linecap="round"><g transform="translate(58 51) rotate(0 -0.07143251955511687 40.82084855616091)"><path d="M0.14 1.57 C0.96 14.86, 2.27 68.77, 3.09 81.68 M-3.23 -0.04 C-2.61 12.26, -0.37 63.96, 0.9 77.59" stroke="#000000" stroke-width="4" fill="none"></path></g><g transform="translate(58 51) rotate(0 -0.07143251955511687 40.82084855616091)"><path d="M-8.93 50.25 C-5.55 59.52, -6.43 64.44, 2.79 78.03 M-10.92 51.31 C-5.03 60.26, -3.76 67.34, -0.48 77.7" stroke="#000000" stroke-width="4" fill="none"></path></g><g transform="translate(58 51) rotate(0 -0.07143251955511687 40.82084855616091)"><path d="M11.55 48.91 C10.13 58.52, 4.43 63.76, 2.79 78.03 M9.56 49.98 C8.78 59.16, 3.38 66.68, -0.48 77.7" stroke="#000000" stroke-width="4" fill="none"></path></g></g><mask></mask><g stroke-linecap="round"><g transform="translate(105 128) rotate(0 0.5408767960965406 -39.24211349502204)"><path d="M-1.88 -1.81 C-1.03 -15.89, 2.22 -68.51, 2.96 -81.86 M2.3 3.38 C3.14 -9, 1.9 -64.47, 1.79 -78.16" stroke="#000000" stroke-width="4" fill="none"></path></g><g transform="translate(105 128) rotate(0 0.5408767960965406 -39.24211349502204)"><path d="M9.88 -47.32 C9.75 -54.3, 7.28 -60.43, 4.74 -79.48 M12.99 -48.9 C7.63 -59.24, 6.23 -67.02, 2.85 -78.95" stroke="#000000" stroke-width="4" fill="none"></path></g><g transform="translate(105 128) rotate(0 0.5408767960965406 -39.24211349502204)"><path d="M-10.64 -47.01 C-6.17 -53.79, -4.04 -59.99, 4.74 -79.48 M-7.53 -48.59 C-6.01 -59.08, -0.53 -66.96, 2.85 -78.95" stroke="#000000" stroke-width="4" fill="none"></path></g></g><mask></mask></svg>